<svg width="25" height="25" viewBox="0 0 25 25" fill="none" xmlns="http://www.w3.org/2000/svg">
<path d="M1.77344 12.5331C1.77344 13.699 1.95313 14.8141 2.3125 15.8783C2.67187 16.9425 3.18359 17.9207 3.84766 18.8127C4.51172 19.7048 5.30469 20.4756 6.22656 21.1251C7.14844 21.7746 8.16406 22.2675 9.27344 22.604V24.1534C7.95313 23.8091 6.74219 23.2692 5.64062 22.5336C4.53906 21.798 3.58984 20.9138 2.79297 19.8809C1.99609 18.848 1.37891 17.7094 0.941406 16.4652C0.503906 15.221 0.28125 13.9103 0.273438 12.5331C0.273438 11.4297 0.414062 10.3655 0.695312 9.34042C0.976562 8.31533 1.38281 7.36066 1.91406 6.47642C2.44531 5.59218 3.07031 4.78228 3.78906 4.04672C4.50781 3.31116 5.31641 2.68123 6.21484 2.15695C7.11328 1.63267 8.07031 1.22967 9.08594 0.947967C10.1016 0.666262 11.1641 0.521497 12.2734 0.513672C13.3281 0.513672 14.3437 0.642787 15.3203 0.901016C16.2969 1.15925 17.2188 1.53094 18.0859 2.0161C18.9531 2.50126 19.7461 3.08423 20.4648 3.76501C21.1836 4.4458 21.8125 5.20093 22.3516 6.03039C22.8906 6.85986 23.3203 7.75975 23.6406 8.73006C23.9609 9.70038 24.1602 10.7059 24.2383 11.7467L22.4336 9.93905C22.1367 8.78093 21.668 7.71671 21.0273 6.74639C20.3867 5.77607 19.6133 4.93878 18.707 4.23452C17.8008 3.53026 16.8047 2.98641 15.7188 2.60298C14.6328 2.21955 13.4844 2.02392 12.2734 2.0161C11.3047 2.0161 10.375 2.1413 9.48438 2.3917C8.59375 2.64211 7.76172 2.99424 6.98828 3.4481C6.21484 3.90195 5.50391 4.45363 4.85547 5.10311C4.20703 5.7526 3.66016 6.46077 3.21484 7.22764C2.76953 7.9945 2.41406 8.83179 2.14844 9.7395C1.88281 10.6472 1.75781 11.5784 1.77344 12.5331ZM12.2734 6.52337C11.4453 6.52337 10.668 6.67988 9.94141 6.99288C9.21484 7.30589 8.58203 7.73627 8.04297 8.28403C7.50391 8.83179 7.07422 9.46954 6.75391 10.1973C6.43359 10.925 6.27344 11.7036 6.27344 12.5331C6.27344 13.3391 6.42187 14.1059 6.71875 14.8337C7.01563 15.5614 7.45313 16.2109 8.03125 16.7821L6.96484 17.8503C6.25391 17.1382 5.71094 16.3244 5.33594 15.4088C4.96094 14.4933 4.77344 13.5347 4.77344 12.5331C4.77344 11.8445 4.86328 11.1793 5.04297 10.5377C5.22266 9.89601 5.47266 9.29738 5.79297 8.7418C6.11328 8.18622 6.50391 7.68149 6.96484 7.22764C7.42578 6.77378 7.93359 6.38252 8.48828 6.05387C9.04297 5.72521 9.64062 5.47089 10.2812 5.29092C10.9219 5.11094 11.5859 5.02095 12.2734 5.02095C12.8594 5.02095 13.4336 5.08746 13.9961 5.22049C14.5586 5.35352 15.0938 5.55306 15.6016 5.81911C16.1094 6.08517 16.5898 6.39817 17.043 6.75813C17.4961 7.11808 17.8945 7.54064 18.2383 8.0258H16.1992C15.6523 7.54064 15.0469 7.16895 14.3828 6.91072C13.7187 6.65249 13.0156 6.52337 12.2734 6.52337ZM19.3398 9.52823L24.2734 14.4698V24.5525H10.7734V9.52823H19.3398ZM19.7734 12.0988V14.0355H21.707L19.7734 12.0988ZM22.7734 23.0501V15.5379H18.2734V11.0307H12.2734V23.0501H22.7734ZM21.2734 17.0404V21.5476H19.7734V17.0404H21.2734ZM13.7734 21.5476V15.5379H15.2734V21.5476H13.7734ZM16.7734 21.5476V18.5428H18.2734V21.5476H16.7734Z" fill="#707070"/>
</svg>
